<?xml version="1.0" standalone="no"?>
<!DOCTYPE svg PUBLIC "-//W3C//DTD SVG 20010904//EN"
 "http://www.w3.org/TR/2001/REC-SVG-20010904/DTD/svg10.dtd">
<svg version="1.0" xmlns="http://www.w3.org/2000/svg"
 width="163.000000pt" height="118.000000pt" viewBox="0 0 163.000000 118.000000"
 preserveAspectRatio="xMidYMid meet">

<g transform="translate(0.000000,118.000000) scale(0.100000,-0.100000)"
fill="#000" stroke="none">
<path d="M715 1154 c-178 -40 -276 -93 -391 -209 -45 -46 -91 -102 -103 -126
-12 -24 -26 -51 -31 -59 -18 -31 -39 -87 -53 -140 -13 -53 -14 -55 -50 -58
-20 -2 -37 -9 -37 -15 0 -14 43 -135 58 -163 15 -28 14 -367 -1 -376 -7 -4 41
-8 106 -8 107 0 118 2 116 18 -1 9 -1 84 0 165 l1 148 63 -3 62 -3 3 -157 3
-157 -63 -4 c-58 -3 -57 -3 20 -5 l82 -2 2 33 c1 17 3 97 4 177 2 136 9 178
43 290 15 48 14 50 -14 50 -14 0 -25 4 -25 9 0 10 80 109 102 126 41 33 91 55
150 66 59 11 75 10 133 -6 77 -21 166 -81 208 -141 36 -53 34 -64 -8 -64 l-34
0 25 -67 c13 -38 30 -77 37 -88 8 -13 13 -80 15 -202 3 -173 5 -183 23 -183
20 0 19 -14 21 242 0 64 4 67 81 60 l47 -4 0 -149 c0 -126 2 -149 15 -149 12
0 15 19 16 108 1 59 2 125 3 147 l1 40 65 0 65 0 0 -145 c0 -143 0 -145 23
-148 l22 -3 0 168 c0 158 2 173 30 263 17 51 30 95 30 96 0 2 -14 4 -31 6 -30
3 -32 7 -65 108 -22 71 -49 129 -81 177 -48 71 -127 163 -141 163 -4 0 -25 17
-47 37 -47 42 -179 106 -250 121 -58 12 -221 23 -250 16z m205 -56 c141 -42
174 -55 248 -104 97 -66 164 -143 226 -264 48 -92 81 -190 65 -190 -5 0 -12 8
-16 18 -23 66 -89 191 -126 239 -49 63 -143 158 -174 176 -136 79 -207 100
-348 100 -98 1 -117 -2 -177 -27 -101 -41 -150 -71 -216 -131 -87 -80 -150
-179 -199 -310 -14 -40 -19 -45 -21 -26 -5 31 31 128 74 202 66 111 198 232
301 276 112 46 281 66 363 41z m41 -92 c37 -12 73 -27 80 -32 8 -6 39 -25 69
-42 112 -63 243 -237 274 -364 6 -28 6 -28 -49 -28 l-55 0 -26 53 c-23 45 -45
77 -83 122 -4 6 -24 24 -43 40 -135 117 -288 153 -449 104 -115 -35 -204 -111
-293 -252 l-37 -58 -50 2 c-28 2 -52 6 -55 11 -20 32 80 201 176 298 79 79
158 126 262 155 77 21 199 17 279 -9z m22 -210 c85 -41 149 -96 196 -170 42
-68 49 -86 30 -86 -13 0 -48 40 -49 56 0 9 -15 30 -48 69 -65 74 -168 131
-257 141 -133 16 -295 -69 -365 -191 -31 -54 -54 -75 -67 -62 -21 22 82 152
167 210 75 52 132 67 240 64 78 -3 105 -9 153 -31z m-615 -283 c106 -4 142 -9
142 -19 0 -27 -37 -32 -214 -27 -178 6 -195 9 -196 41 0 14 53 15 268 5z
m1158 -28 c4 -8 1 -22 -6 -30 -18 -22 -369 -11 -387 12 -7 9 -10 20 -7 24 3 5
93 9 200 9 164 0 196 -2 200 -15z m-1083 -61 c41 -6 45 -9 36 -25 -9 -17 -24
-19 -167 -19 -158 0 -182 5 -182 37 0 10 31 13 134 13 73 0 154 -3 179 -6z
m1050 -33 c4 -4 5 -15 1 -24 -5 -15 -26 -17 -163 -17 l-158 0 -11 25 c-7 14
-12 28 -12 31 0 9 334 -6 343 -15z m-1193 -221 l0 -161 -67 3 -68 3 -3 158 -3
157 71 0 70 0 0 -160z"/>
</g>
</svg>
